<svg id="Camada_3" data-name="Camada 3" xmlns="http://www.w3.org/2000/svg" xmlns:xlink="http://www.w3.org/1999/xlink" viewBox="0 0 260 260"><defs><style>.cls-1{fill:url(#Gradiente_sem_nome_78);}.cls-2{fill:#0d03d6;}.cls-3{fill:#1725dd;}.cls-4{fill:url(#Gradiente_sem_nome_77);}</style><radialGradient id="Gradiente_sem_nome_78" cx="625.45" cy="419.47" r="130" gradientUnits="userSpaceOnUse"><stop offset="0" stop-color="#494949"/><stop offset="0.39" stop-color="#454545"/><stop offset="0.76" stop-color="#3a3a3a"/><stop offset="1" stop-color="#2e2e2e"/></radialGradient><linearGradient id="Gradiente_sem_nome_77" x1="116.16" y1="193.5" x2="144.49" y2="193.5" gradientUnits="userSpaceOnUse"><stop offset="0.02" stop-color="#242424"/><stop offset="0.09" stop-color="#2d2d2d"/><stop offset="0.2" stop-color="#343434"/><stop offset="0.5" stop-color="#363636"/><stop offset="0.79" stop-color="#343434"/><stop offset="0.89" stop-color="#2d2d2d"/><stop offset="0.95" stop-color="#242424"/></linearGradient></defs><title>potentiometer</title><path class="cls-1" d="M753.51,413.81h-2.24a125.29,125.29,0,0,0-7.75-38.27l2.19-.9a2,2,0,0,0,1-2.53l-2.41-5.83a1.94,1.94,0,0,0-2.53-1l-2.23.92a126.45,126.45,0,0,0-21.75-32.29l1.56-1.56a2,2,0,0,0,0-2.74l-4.46-4.45a1.93,1.93,0,0,0-2.74,0l-1.57,1.57a126.42,126.42,0,0,0-32.83-21.81l.83-2a1.94,1.94,0,0,0-1-2.53l-5.82-2.41a1.94,1.94,0,0,0-2.53,1.05l-.84,2a125.66,125.66,0,0,0-37.86-7.41V291.4a1.94,1.94,0,0,0-1.93-1.93h-6.3a1.94,1.94,0,0,0-1.94,1.93v2.22a125.69,125.69,0,0,0-38.2,7.53l-.81-1.95a1.93,1.93,0,0,0-2.52-1L573,300.57a1.94,1.94,0,0,0-1,2.53l.8,1.94a126.08,126.08,0,0,0-32.7,21.84l-1.37-1.37a2,2,0,0,0-2.74,0L531.49,330a2,2,0,0,0,0,2.74l1.37,1.37A126.19,126.19,0,0,0,511.1,366.6l-2-.84a1.93,1.93,0,0,0-2.53,1.05l-2.41,5.82a1.94,1.94,0,0,0,1,2.53l2,.83a125.16,125.16,0,0,0-7.57,37.82h-2.25a2,2,0,0,0-1.93,1.94v6.3a1.94,1.94,0,0,0,1.93,1.94h2.2a125.92,125.92,0,0,0,7.45,38.5l-1.85.76a1.94,1.94,0,0,0-1,2.53l2.41,5.82a1.93,1.93,0,0,0,2.53,1l1.82-.75a126.28,126.28,0,0,0,21.77,32.75l-1.57,1.57a1.93,1.93,0,0,0,0,2.74l4.45,4.46a2,2,0,0,0,2.74,0l1.56-1.56a126.18,126.18,0,0,0,32.22,21.71l-.85,2a1.94,1.94,0,0,0,1,2.53l5.83,2.41a1.94,1.94,0,0,0,2.53-1l.82-2a125.32,125.32,0,0,0,38.92,7.8v2.22a1.94,1.94,0,0,0,1.94,1.94h6.3a1.94,1.94,0,0,0,1.93-1.94v-2.22a125.59,125.59,0,0,0,38.58-7.67l.86,2.09a2,2,0,0,0,2.53,1l5.82-2.41a1.94,1.94,0,0,0,1-2.53l-.87-2.11a126.16,126.16,0,0,0,32.33-21.68l1.77,1.77a2,2,0,0,0,2.74,0l4.46-4.46a2,2,0,0,0,0-2.74L718,504.85a126.3,126.3,0,0,0,21.76-32.51l2,.83a1.94,1.94,0,0,0,2.53-1l2.41-5.83a2,2,0,0,0-1-2.53l-2-.83A125.43,125.43,0,0,0,751.31,424h2.2a1.94,1.94,0,0,0,1.94-1.94v-6.3A2,2,0,0,0,753.51,413.81Z" transform="translate(-495.45 -289.47)"/><circle class="cls-2" cx="130" cy="130" r="104.1"/><circle class="cls-3" cx="130" cy="130" r="101.67"/><rect class="cls-4" x="121.01" y="127" width="18" height="133" rx="2.11"/></svg>